<?xml version="1.0" encoding="UTF-8" standalone="no"?>
<!DOCTYPE svg PUBLIC "-//W3C//DTD SVG 1.1//EN"
 "http://www.w3.org/Graphics/SVG/1.1/DTD/svg11.dtd">
<!-- Generated by graphviz version 2.40.1 (20161225.0304)
 -->
<!-- Title: dependencies Pages: 1 -->
<svg width="589pt" height="284pt"
 viewBox="0.00 0.00 589.00 284.00" xmlns="http://www.w3.org/2000/svg" xmlns:xlink="http://www.w3.org/1999/xlink">
<g id="graph0" class="graph" transform="scale(1 1) rotate(0) translate(4 280)">
<title>dependencies</title>
<polygon fill="#ffffff" stroke="transparent" points="-4,4 -4,-280 585,-280 585,4 -4,4"/>
<text text-anchor="start" x="269.5091" y="-42.4" font-family="sans-serif" font-weight="bold" font-size="14.00" fill="#000000">Legend</text>
<polygon fill="#ffffb3" stroke="transparent" points="56.5,-10 56.5,-30 76.5,-30 76.5,-10 56.5,-10"/>
<text text-anchor="start" x="80.129" y="-15.4" font-family="sans-serif" font-size="14.00" fill="#000000"> &#160;Declarations</text>
<polygon fill="#8dd3c7" stroke="transparent" points="169.5,-10 169.5,-30 189.5,-30 189.5,-10 169.5,-10"/>
<text text-anchor="start" x="193.2251" y="-15.4" font-family="sans-serif" font-size="14.00" fill="#000000"> &#160;Module</text>
<polygon fill="#80b1d3" stroke="transparent" points="255.5,-10 255.5,-30 275.5,-30 275.5,-10 255.5,-10"/>
<text text-anchor="start" x="279.2812" y="-15.4" font-family="sans-serif" font-size="14.00" fill="#000000"> &#160;Bootstrap</text>
<polygon fill="#fdb462" stroke="transparent" points="352.5,-10 352.5,-30 372.5,-30 372.5,-10 352.5,-10"/>
<text text-anchor="start" x="376.1732" y="-15.4" font-family="sans-serif" font-size="14.00" fill="#000000"> &#160;Providers</text>
<polygon fill="#fb8072" stroke="transparent" points="448.5,-10 448.5,-30 468.5,-30 468.5,-10 448.5,-10"/>
<text text-anchor="start" x="472.2258" y="-15.4" font-family="sans-serif" font-size="14.00" fill="#000000"> &#160;Exports</text>
<g id="clust1" class="cluster">
<title>cluster_AppModule</title>
<polygon fill="none" stroke="#000000" stroke-dasharray="1,5" points="8,-70 8,-268 573,-268 573,-70 8,-70"/>
</g>
<g id="clust2" class="cluster">
<title>cluster_AppModule_declarations</title>
<polygon fill="none" stroke="#000000" points="16,-78 16,-130 565,-130 565,-78 16,-78"/>
</g>
<g id="clust9" class="cluster">
<title>cluster_AppModule_bootstrap</title>
<polygon fill="none" stroke="#000000" points="250,-208 250,-260 374,-260 374,-208 250,-208"/>
</g>
<!-- AppComponent -->
<g id="node1" class="node">
<title>AppComponent</title>
<polygon fill="#ffffb3" stroke="#000000" points="556.9399,-122 451.0601,-122 451.0601,-86 556.9399,-86 556.9399,-122"/>
<text text-anchor="middle" x="504" y="-99.8" font-family="Times,serif" font-size="14.00" fill="#000000">AppComponent</text>
</g>
<!-- AppModule -->
<g id="node5" class="node">
<title>AppModule</title>
<polygon fill="#8dd3c7" stroke="#000000" points="353.6571,-187 350.6571,-191 329.6571,-191 326.6571,-187 270.3429,-187 270.3429,-151 353.6571,-151 353.6571,-187"/>
<text text-anchor="middle" x="312" y="-164.8" font-family="Times,serif" font-size="14.00" fill="#000000">AppModule</text>
</g>
<!-- AppComponent&#45;&gt;AppModule -->
<g id="edge1" class="edge">
<title>AppComponent&#45;&gt;AppModule</title>
<path fill="none" stroke="#000000" d="M504,-122.1061C504,-141.3391 504,-169 504,-169 504,-169 363.6611,-169 363.6611,-169"/>
<polygon fill="#000000" stroke="#000000" points="363.6612,-165.5001 353.6611,-169 363.6611,-172.5001 363.6612,-165.5001"/>
</g>
<!-- JokeComponent -->
<g id="node2" class="node">
<title>JokeComponent</title>
<polygon fill="#ffffb3" stroke="#000000" points="433.4916,-122 326.5084,-122 326.5084,-86 433.4916,-86 433.4916,-122"/>
<text text-anchor="middle" x="380" y="-99.8" font-family="Times,serif" font-size="14.00" fill="#000000">JokeComponent</text>
</g>
<!-- JokeComponent&#45;&gt;AppModule -->
<g id="edge2" class="edge">
<title>JokeComponent&#45;&gt;AppModule</title>
<path fill="none" stroke="#000000" d="M340.1662,-122.1061C340.1662,-122.1061 340.1662,-140.991 340.1662,-140.991"/>
<polygon fill="#000000" stroke="#000000" points="336.6663,-140.9909 340.1662,-150.991 343.6663,-140.991 336.6663,-140.9909"/>
</g>
<!-- JokeListComponent -->
<g id="node3" class="node">
<title>JokeListComponent</title>
<polygon fill="#ffffb3" stroke="#000000" points="308.2702,-122 179.7298,-122 179.7298,-86 308.2702,-86 308.2702,-122"/>
<text text-anchor="middle" x="244" y="-99.8" font-family="Times,serif" font-size="14.00" fill="#000000">JokeListComponent</text>
</g>
<!-- JokeListComponent&#45;&gt;AppModule -->
<g id="edge3" class="edge">
<title>JokeListComponent&#45;&gt;AppModule</title>
<path fill="none" stroke="#000000" d="M289.2784,-122.1061C289.2784,-122.1061 289.2784,-140.991 289.2784,-140.991"/>
<polygon fill="#000000" stroke="#000000" points="285.7785,-140.9909 289.2784,-150.991 292.7785,-140.991 285.7785,-140.9909"/>
</g>
<!-- JokeFormComponent -->
<g id="node4" class="node">
<title>JokeFormComponent</title>
<polygon fill="#ffffb3" stroke="#000000" points="161.8258,-122 24.1742,-122 24.1742,-86 161.8258,-86 161.8258,-122"/>
<text text-anchor="middle" x="93" y="-99.8" font-family="Times,serif" font-size="14.00" fill="#000000">JokeFormComponent</text>
</g>
<!-- JokeFormComponent&#45;&gt;AppModule -->
<g id="edge4" class="edge">
<title>JokeFormComponent&#45;&gt;AppModule</title>
<path fill="none" stroke="#000000" d="M93,-122.1061C93,-141.3391 93,-169 93,-169 93,-169 260.2923,-169 260.2923,-169"/>
<polygon fill="#000000" stroke="#000000" points="260.2923,-172.5001 270.2923,-169 260.2923,-165.5001 260.2923,-172.5001"/>
</g>
<!-- AppComponent  -->
<g id="node6" class="node">
<title>AppComponent </title>
<polygon fill="#80b1d3" stroke="#000000" points="366.439,-252 257.561,-252 257.561,-216 366.439,-216 366.439,-252"/>
<text text-anchor="middle" x="312" y="-229.8" font-family="Times,serif" font-size="14.00" fill="#000000">AppComponent </text>
</g>
<!-- AppModule&#45;&gt;AppComponent  -->
<g id="edge5" class="edge">
<title>AppModule&#45;&gt;AppComponent </title>
<path fill="none" stroke="#000000" stroke-dasharray="1,5" d="M312,-187.1061C312,-187.1061 312,-205.991 312,-205.991"/>
<polygon fill="#000000" stroke="#000000" points="308.5001,-205.9909 312,-215.991 315.5001,-205.991 308.5001,-205.9909"/>
</g>
</g>
</svg>
